<svg width="140" height="129" viewBox="0 0 140 129" fill="none" xmlns="http://www.w3.org/2000/svg">
<path d="M64.3087 23.5846C70.1993 23.5807 76.0235 24.8541 81.3751 27.3268C86.7267 29.7955 91.4806 33.3971 95.3087 37.8854C97.3595 40.1744 100.223 41.5651 103.281 41.7682C106.348 41.9674 109.363 40.9596 111.695 38.9596C114.027 36.9557 115.481 34.1198 115.75 31.0573C116.02 27.9909 115.082 24.944 113.137 22.5651C102.203 9.74085 86.6798 1.72523 69.9142 0.248663C53.1446 -1.23181 36.465 3.94007 23.461 14.651C10.4571 25.3619 2.16417 40.7604 0.367295 57.5338C-1.42958 74.3073 3.41417 91.1159 13.8517 104.35C1.8048 52.3619 34.3478 22.4752 64.3087 23.5846Z" fill="#FFF121"/>
<path d="M111.66 89.5688C110.484 88.5649 109.121 87.8032 107.652 87.3266C106.18 86.8461 104.629 86.6586 103.086 86.7797C101.543 86.9008 100.039 87.3188 98.6564 88.018C97.2775 88.7172 96.0509 89.6782 95.0431 90.8461C90.5782 96.0415 84.8712 100.03 78.4532 102.452C72.0314 104.873 65.1017 105.651 58.3009 104.709C51.5001 103.764 45.047 101.135 39.5392 97.0571C34.0236 92.979 29.6329 87.5883 26.7618 81.3813C23.8907 75.1704 22.6368 68.3422 23.1134 61.5219C23.5861 54.7055 25.7775 48.1118 29.4806 42.3579C33.1876 36.6 38.2853 31.8657 44.3087 28.5883C50.3321 25.3071 57.09 23.5883 63.9571 23.5922C33.9064 22.4868 1.26965 52.2641 13.3517 104.116C19.2423 111.569 26.7228 117.627 35.2501 121.854C43.7775 126.084 53.1407 128.377 62.6642 128.573C72.1876 128.768 81.6368 126.858 90.3322 122.979C99.0275 119.1 106.75 113.35 112.942 106.147C113.957 104.975 114.727 103.616 115.211 102.151C115.692 100.682 115.879 99.1313 115.762 97.5922C115.641 96.0532 115.219 94.5493 114.516 93.1743C113.809 91.7954 112.84 90.5727 111.66 89.5688Z" fill="#C9BE17"/>
<path d="M69.6329 52.5103H67.7853C64.7657 52.6274 61.9103 53.9204 59.8165 56.1157C57.7228 58.3149 56.5509 61.2446 56.5509 64.2915C56.5509 67.3423 57.7228 70.2681 59.8165 72.4673C61.9103 74.6626 64.7657 75.9556 67.7853 76.0728H107.043C103.348 52.7407 69.6329 52.5103 69.6329 52.5103Z" fill="#C9BE17"/>
<path d="M127.207 52.5184H69.3439C69.3439 52.5184 103.094 52.784 106.727 76.0653H127.207C128.781 76.1278 130.352 75.8661 131.824 75.3036C133.293 74.7372 134.637 73.8817 135.774 72.784C136.906 71.6825 137.809 70.3661 138.426 68.9051C139.043 67.4481 139.359 65.8778 139.359 64.2918C139.359 62.7059 139.043 61.1395 138.426 59.6786C137.809 58.2215 136.906 56.9012 135.774 55.8036C134.637 54.702 133.293 53.8465 131.824 53.2801C130.352 52.7176 128.781 52.4598 127.207 52.5184Z" fill="#FFF121"/>
</svg>
