<svg width="17" height="24" viewBox="0 0 17 24" fill="none" xmlns="http://www.w3.org/2000/svg">
<g clip-path="url(#clip0_55474_2572)">
<path fill-rule="evenodd" clip-rule="evenodd" d="M16.0215 7.53428H10.8442V0.451535C10.8442 0.214996 11.0395 0.0205078 11.277 0.0205078H12.0523C12.0541 1.18103 12.5174 2.29411 13.3422 3.11592C14.1693 3.9372 15.2871 4.39861 16.4543 4.39861V7.53428H16.0215ZM16.4543 10.0344C16.4543 12.9883 15.7767 15.1896 14.4209 16.6242C13.0656 18.0588 10.9723 18.7743 8.14949 18.7743C5.51108 18.7743 3.50997 18.0588 2.14551 16.6242C0.781177 15.1896 0.0998535 13.0271 0.0998535 10.1348V0.432057C0.0998535 0.2059 0.284218 0.0205078 0.513126 0.0205078H5.29621C5.52332 0.0223078 5.70999 0.2059 5.70999 0.432057V10.347C5.70999 11.527 5.92989 12.437 6.37497 13.0765C7.06531 13.9865 8.30025 14.2905 9.33448 13.806C9.66781 13.6491 9.96083 13.4193 10.1915 13.1348C10.628 12.5324 10.8442 11.6473 10.8442 10.474V8.61928H16.4543V10.0344Z" fill="#1F3E79"/>
<path fill-rule="evenodd" clip-rule="evenodd" d="M13.156 0.0205078H16.0214C16.2607 0.0205078 16.4542 0.214996 16.4542 0.451535V3.3086C14.6339 3.3086 13.156 1.83859 13.156 0.024098V0.0205078Z" fill="#F4821F"/>
<path fill-rule="evenodd" clip-rule="evenodd" d="M1.03816 23.4882C1.67185 23.4882 1.97698 23.1364 1.97698 22.6207V21.3788H1.52469V22.608C1.52469 23.2566 0.548536 23.2566 0.548536 22.608V21.3788H0.0998535V22.6243C0.0998535 23.1332 0.405111 23.4882 1.03816 23.4882ZM4.7126 23.4493V23.0622H3.70837L4.69122 21.732V21.3788H3.12836V21.7673H4.11122L3.12836 23.0925V23.4493H4.7126ZM6.8292 23.4882C7.1929 23.495 7.52996 23.2992 7.70029 22.9777L7.31741 22.7954C7.22341 22.9777 7.03531 23.0943 6.82726 23.0961C6.24365 23.0677 5.9635 22.3697 6.36634 21.9473C6.48673 21.8202 6.65384 21.7442 6.82726 21.7356C7.03531 21.7393 7.22341 21.8555 7.31741 22.0378L7.70029 21.8505C7.52996 21.5307 7.1929 21.3344 6.8292 21.3448C6.04706 21.3223 5.50245 22.1138 5.8054 22.8329C5.97933 23.2409 6.38579 23.5005 6.8292 23.4882ZM10.6988 23.4493L9.89671 21.3788H9.34349L8.53779 23.4493H9.04325L9.17316 23.0993H10.067L10.1952 23.4493H10.6988ZM9.94486 22.7107H9.29534L9.62017 21.8202L9.94486 22.7107ZM13.6901 23.9704L12.9272 22.6615C13.2073 22.5941 13.399 22.3345 13.3813 22.0482C13.3954 21.6615 13.0693 21.3486 12.6823 21.3806H11.7084V23.4511H12.1519V22.7143H12.4766L13.181 23.9686L13.6883 23.9704H13.6901ZM12.6169 22.3273H12.1536V21.7691H12.6169C12.7836 21.7497 12.9308 21.8786 12.9308 22.0482C12.9308 22.216 12.7836 22.3466 12.6169 22.3273ZM15.3525 23.4511C16.0038 23.4511 16.4561 23.041 16.4561 22.4177C16.4561 21.7921 16.0038 21.3806 15.3525 21.3806H14.5308V23.4511H15.3525ZM15.3525 23.0622H14.9746V21.7691H15.3525C15.7217 21.7406 16.0301 22.0482 16.0038 22.4177C16.0197 22.7814 15.7163 23.0816 15.3507 23.0622H15.3525ZM16.9935 21.34V21.3448C16.9935 21.6895 16.5765 21.861 16.3335 21.6189C16.0905 21.3752 16.2627 20.96 16.607 20.96H16.9935V21.34Z" fill="#1F3E79"/>
</g>
<defs>
<clipPath id="clip0_55474_2572">
<rect width="17" height="24" fill="white"/>
</clipPath>
</defs>
</svg>
